<mxfile host="app.diagrams.net" modified="2023-02-08T10:34:46.492Z" agent="5.0 (Windows NT 10.0; Win64; x64) AppleWebKit/537.36 (KHTML, like Gecko) Chrome/109.0.0.0 Safari/537.36" etag="SJ5dDVU-uPcgda2xGihs" version="20.8.16" type="github">
  <diagram name="第 1 页" id="3IGPHWdNV0Xtt6qsLSb3">
    <mxGraphModel dx="1434" dy="764" grid="1" gridSize="10" guides="1" tooltips="1" connect="1" arrows="1" fold="1" page="1" pageScale="1" pageWidth="827" pageHeight="1169" math="0" shadow="0">
      <root>
        <mxCell id="0" />
        <mxCell id="1" parent="0" />
        <mxCell id="65JgVJ4Pg_FEaSgtAQy8-1" value="接入方" style="rounded=0;whiteSpace=wrap;html=1;align=left;" vertex="1" parent="1">
          <mxGeometry x="110" y="70" width="610" height="170" as="geometry" />
        </mxCell>
        <mxCell id="65JgVJ4Pg_FEaSgtAQy8-2" value="内部系统调用" style="rounded=0;whiteSpace=wrap;html=1;" vertex="1" parent="1">
          <mxGeometry x="230" y="125" width="120" height="60" as="geometry" />
        </mxCell>
        <mxCell id="65JgVJ4Pg_FEaSgtAQy8-3" value="消息管理平台" style="rounded=0;whiteSpace=wrap;html=1;" vertex="1" parent="1">
          <mxGeometry x="380" y="125" width="120" height="60" as="geometry" />
        </mxCell>
        <mxCell id="65JgVJ4Pg_FEaSgtAQy8-4" value="" style="rounded=0;whiteSpace=wrap;html=1;" vertex="1" parent="1">
          <mxGeometry x="110" y="280" width="610" height="510" as="geometry" />
        </mxCell>
        <mxCell id="65JgVJ4Pg_FEaSgtAQy8-5" value="接入层" style="rounded=1;whiteSpace=wrap;html=1;align=left;" vertex="1" parent="1">
          <mxGeometry x="144" y="320" width="540" height="60" as="geometry" />
        </mxCell>
        <mxCell id="65JgVJ4Pg_FEaSgtAQy8-6" value="权限验证" style="rounded=0;whiteSpace=wrap;html=1;" vertex="1" parent="1">
          <mxGeometry x="200" y="330" width="120" height="40" as="geometry" />
        </mxCell>
        <mxCell id="65JgVJ4Pg_FEaSgtAQy8-8" value="校验层" style="rounded=1;whiteSpace=wrap;html=1;align=left;" vertex="1" parent="1">
          <mxGeometry x="144" y="410" width="540" height="60" as="geometry" />
        </mxCell>
        <mxCell id="65JgVJ4Pg_FEaSgtAQy8-9" value="消息参数是否合规" style="rounded=0;whiteSpace=wrap;html=1;" vertex="1" parent="1">
          <mxGeometry x="200" y="420" width="120" height="40" as="geometry" />
        </mxCell>
        <mxCell id="65JgVJ4Pg_FEaSgtAQy8-11" value="push消息中间件" style="rounded=1;whiteSpace=wrap;html=1;align=left;" vertex="1" parent="1">
          <mxGeometry x="145" y="490" width="540" height="60" as="geometry" />
        </mxCell>
        <mxCell id="65JgVJ4Pg_FEaSgtAQy8-12" value="mq" style="rounded=0;whiteSpace=wrap;html=1;" vertex="1" parent="1">
          <mxGeometry x="260" y="505" width="120" height="35" as="geometry" />
        </mxCell>
        <mxCell id="65JgVJ4Pg_FEaSgtAQy8-13" value="实施推送" style="rounded=1;whiteSpace=wrap;html=1;align=left;" vertex="1" parent="1">
          <mxGeometry x="145" y="585" width="545" height="60" as="geometry" />
        </mxCell>
        <mxCell id="65JgVJ4Pg_FEaSgtAQy8-14" value="Email" style="rounded=0;whiteSpace=wrap;html=1;" vertex="1" parent="1">
          <mxGeometry x="230" y="592.5" width="120" height="45" as="geometry" />
        </mxCell>
        <mxCell id="65JgVJ4Pg_FEaSgtAQy8-17" value="飞书" style="rounded=0;whiteSpace=wrap;html=1;" vertex="1" parent="1">
          <mxGeometry x="370" y="592.5" width="120" height="45" as="geometry" />
        </mxCell>
        <mxCell id="65JgVJ4Pg_FEaSgtAQy8-18" value="短信" style="rounded=0;whiteSpace=wrap;html=1;" vertex="1" parent="1">
          <mxGeometry x="510" y="592.5" width="120" height="45" as="geometry" />
        </mxCell>
        <mxCell id="65JgVJ4Pg_FEaSgtAQy8-20" value="推送记录存储" style="rounded=1;whiteSpace=wrap;html=1;align=left;" vertex="1" parent="1">
          <mxGeometry x="145" y="680" width="545" height="60" as="geometry" />
        </mxCell>
        <mxCell id="65JgVJ4Pg_FEaSgtAQy8-21" value="mysql" style="rounded=0;whiteSpace=wrap;html=1;" vertex="1" parent="1">
          <mxGeometry x="240" y="690" width="120" height="40" as="geometry" />
        </mxCell>
      </root>
    </mxGraphModel>
  </diagram>
</mxfile>
